<?xml version="1.0" encoding="UTF-8" standalone="no"?>
<!-- Created with Inkscape (http://www.inkscape.org/) -->

<svg
   xmlns:dc="http://purl.org/dc/elements/1.1/"
   xmlns:cc="http://creativecommons.org/ns#"
   xmlns:rdf="http://www.w3.org/1999/02/22-rdf-syntax-ns#"
   xmlns:svg="http://www.w3.org/2000/svg"
   xmlns="http://www.w3.org/2000/svg"
   xmlns:sodipodi="http://sodipodi.sourceforge.net/DTD/sodipodi-0.dtd"
   xmlns:inkscape="http://www.inkscape.org/namespaces/inkscape"
   version="1.1"
   id="svg2"
   width="70.49073"
   height="14.999997"
   viewBox="0 0 70.490731 14.999997"
   sodipodi:docname="dialnet.svg"
   inkscape:version="0.92.3 (2405546, 2018-03-11)">
  <metadata
     id="metadata8">
    <rdf:RDF>
      <cc:Work
         rdf:about="">
        <dc:format>image/svg+xml</dc:format>
        <dc:type
           rdf:resource="http://purl.org/dc/dcmitype/StillImage" />
        <dc:title></dc:title>
      </cc:Work>
    </rdf:RDF>
  </metadata>
  <defs
     id="defs6" />
  <sodipodi:namedview
     pagecolor="#ffffff"
     bordercolor="#666666"
     borderopacity="1"
     objecttolerance="10"
     gridtolerance="10"
     guidetolerance="10"
     inkscape:pageopacity="0"
     inkscape:pageshadow="2"
     inkscape:window-width="1920"
     inkscape:window-height="1031"
     id="namedview4"
     showgrid="false"
     inkscape:zoom="2.5861674"
     inkscape:cx="142.18505"
     inkscape:cy="10.62104"
     inkscape:window-x="0"
     inkscape:window-y="0"
     inkscape:window-maximized="1"
     inkscape:current-layer="svg2"
     fit-margin-top="0"
     fit-margin-left="0"
     fit-margin-right="0"
     fit-margin-bottom="0" />
  <g
     id="g837"
     transform="scale(0.0269357)">
    <path
       sodipodi:nodetypes="ccccssscscscccsscccccssccsscccscsccscccccccccccccccccccccccccsccscccsccsccccccccccscccccccccccccccccccscscccccccsccccscccccscccccccccsccssccscccsccsscccccscccsscsscccscccccccccc"
       inkscape:connector-curvature="0"
       id="path831"
       d="m 1370.255,554.9694 c -18.0223,-2.7275 -30.2686,-6.3447 -43.755,-12.9239 -23.1175,-11.2775 -37.19,-25.3236 -45.1734,-45.0886 -4.3783,-10.8397 -5.637,-19.1036 -5.705,-37.4569 -0.094,-25.4155 2.9791,-40.0386 12.1746,-57.9268 13.6276,-26.51002 36.9584,-43.49129 71.2038,-51.82562 8.0221,-1.95234 11.9999,-2.09153 70.75,-2.4756 l 62.25,-0.40696 -0.01,-44.18251 c -0.01,-44.1813 -0.01,-44.18265 -2.343,-49.18251 -6.364,-13.63713 -25.7876,-22.24075 -58.8678,-26.07525 -27.3835,-3.17415 -81.5311,-0.78366 -114.7392,5.06549 -4.6529,0.81955 -8.7567,1.15701 -9.1195,0.74992 -0.9418,-1.05691 -6.294,-31.20022 -5.6535,-31.84069 0.7861,-0.78607 21.2633,-4.00374 36.7328,-5.77198 35.9825,-4.11298 76.6197,-4.56111 102,-1.1248 41.4496,5.61195 68.2896,20.11747 79.6113,43.02542 6.5291,13.21068 6.3152,7.49775 6.3538,169.72189 L 1526,554 h -17 -17 v -9 c 0,-5.4795 -0.4009,-9 -1.025,-9 -0.5637,0 -4.2381,1.6181 -8.1653,3.5958 -28.3102,14.2568 -76.4697,20.8348 -112.5547,15.3736 z m 62.8716,-34.8266 c 24.9262,-5.1387 44.0189,-13.4476 55.1234,-23.9889 l 3.75,-3.5598 v -55.8399 -55.8399 l -61.75,0.32706 c -60.7435,0.32172 -61.8702,0.36377 -69.122,2.58016 C 1325.791,394.6216 1309,418.9592 1309,459.3779 c 0,7.7304 0.5611,14.3562 1.5312,18.0805 5.9663,22.9064 25.9165,37.1931 60.9688,43.6612 13.6752,2.5234 47.2278,1.9916 61.6266,-0.9768 z M 1157,378 V 202 h 17 17 v 176 176 h -17 -17 z M 1622,277 V 0 h 16.5 16.5 v 277 277 h -16.5 -16.5 z m 133,101 V 202 h 17 17 v 10.51548 10.51548 l 6.3164,-3.98919 c 19.935,-12.59004 44.8314,-21.05111 74.1836,-25.21132 13.7367,-1.94695 51.4033,-1.66167 65.5,0.49608 42.5609,6.51475 69.6765,22.98397 82.6077,50.17347 6.8008,14.29961 6.3923,3.80655 6.3923,164.2101 V 554 H 2007.5 1991 V 412.1815 c 0,-154.32092 0.2533,-147.06773 -5.4509,-156.10365 -4.0732,-6.45238 -14.1588,-14.83463 -22.8539,-18.99397 -16.2103,-7.75435 -34.4221,-11.03683 -61.394,-11.06556 -45.4749,-0.0484 -80.0367,11.29825 -103.5073,33.98168 l -8.795,8.5 5e-4,142.75 L 1789,554 h -17 -17 z m 766,175.3522 c -9.4985,-1.4266 -15.0282,-2.8421 -18.9667,-4.8553 -10.473,-5.3532 -16.2945,-15.0582 -17.9934,-29.9969 -0.6494,-5.7107 -1.0265,-59.7105 -1.0317,-147.75 L 2483,232 h -34 -34 V 217.5 203 h 34 34 V 149.5 96 h 14.5 14.5 v 53.5 53.5 h 52.5 52.5 v 14.5 14.5 h -52.5 -52.5 v 139.86043 c 0,76.92327 0.2906,141.98087 0.6459,144.57247 1.1338,8.2726 -0.2571,8.0226 46.5583,8.3689 L 2600,525.1036 V 539.5518 554 l -38.25,-0.1362 c -21.0375,-0.075 -39.375,-0.3051 -40.75,-0.5116 z m -282,-1.9303 c -1.925,-0.2214 -8.45,-0.8883 -14.5,-1.4819 -22.4917,-2.207 -43.2101,-7.4314 -59.2275,-14.9349 -36.2305,-16.9725 -54.2603,-47.5264 -61.9633,-105.0051 -2.6014,-19.411 -2.5915,-92.21527 0.015,-111.5 4.5848,-33.92066 12.0949,-56.78449 24.9636,-76 5.8461,-8.72926 19.114,-21.25179 28.3967,-26.80132 18.7938,-11.23564 35.7673,-15.63693 68.2425,-17.69551 65.3783,-4.14429 109.8728,15.28389 129.1335,56.38515 7.5878,16.19186 7.8932,19.17556 7.9178,77.35743 l 0.022,51.24574 -113.75,0.25426 -113.75,0.25425 0.2843,13.5 c 0.3146,14.9381 2.3407,34.7857 4.7696,46.7236 2.2575,11.0957 7.9763,27.7397 12.011,34.9567 13.7856,24.6594 40.3405,35.7909 94.0351,39.4184 16.5644,1.119 84.2645,0.603 98.0167,-0.7471 l 6.1168,-0.6005 0.4911,16.8745 c 0.2702,9.2809 0.3474,17.0447 0.1716,17.2528 -0.4413,0.5223 -107.0576,1.0425 -111.3962,0.5435 z m 90,-233.26194 c 0,-28.44948 -0.2106,-32.66366 -1.9781,-39.57452 -2.7388,-10.70835 -6.3225,-16.91626 -14.5048,-25.12622 -10.3747,-10.40967 -24.5301,-16.95833 -44.5171,-20.5947 -10.8522,-1.97442 -48.5576,-1.70583 -61,0.43452 -19.7575,3.39871 -32.7216,9.43577 -43.4771,20.24615 -8.5336,8.5772 -14.2345,18.3509 -18.9307,32.45481 -4.9893,14.98389 -9.5922,43.34671 -9.5922,59.10595 V 350 h 97 97 z M 728,291 V 34 h 81.85478 c 47.57521,0 87.1963,0.43374 94.60956,1.03572 66.50563,5.40042 112.67766,32.8899 136.82946,81.46428 8.2952,16.68334 13.5742,35.67978 15.661,56.35595 1.4291,14.15999 1.4158,215.31292 -0.015,229.28805 -4.2116,41.1304 -18.3313,73.2939 -42.9587,97.856 -19.99324,19.9403 -45.66709,34.055 -76.32069,41.9587 C 914.67563,547.885 912.35944,548 815.96562,548 H 728 Z m 191.5,221.1724 c 52.73148,-11.3667 85.4332,-39.9529 98.9114,-86.4635 6.0923,-21.0233 6.0886,-20.9384 6.0886,-138.7089 0,-117.6814 0.1561,-114.15981 -6.0026,-135.41228 C 1004.8554,104.51218 965.74325,75.35422 907.78941,69.05541 901.94637,68.42035 870.98001,68 830.03941,68 H 762 V 291.55852 515.117 l 73.75,-0.3945 c 70.96351,-0.3796 74.12783,-0.476 83.75,-2.5501 z M 1157,90.5 V 68 h 17 17 V 90.5 113 h -17 -17 z"
       style="fill:#000000" />
    <g
       style="fill:#b41917;fill-opacity:1"
       id="g829">
      <path
         inkscape:connector-curvature="0"
         style="opacity:1;fill:#b41917;fill-opacity:1;stroke:none;stroke-width:1.02981746;stroke-linecap:round;stroke-linejoin:round;stroke-miterlimit:4;stroke-dasharray:none;stroke-dashoffset:0;stroke-opacity:1"
         d="M 0,23.287109 V 283.58203 543.875 h 258.10742 v -0.10742 a 260.29449,260.29449 0 0 0 2.1875,0.10937 260.29449,260.29449 0 0 0 260.29492,-260.29492 260.29449,260.29449 0 0 0 -260.29492,-260.294921 260.29449,260.29449 0 0 0 -2.1875,0.07813 v -0.07813 z M 260.8418,105.3125 A 178.8159,178.8159 0 0 1 439.6582,284.12891 178.8159,178.8159 0 0 1 260.8418,462.94336 178.8159,178.8159 0 0 1 82.025391,284.12891 178.8159,178.8159 0 0 1 260.8418,105.3125 Z"
         id="rect817" />
      <circle
         style="opacity:1;fill:#b41917;fill-opacity:1;stroke:none;stroke-width:1.19741714;stroke-linecap:round;stroke-linejoin:round;stroke-miterlimit:4;stroke-dasharray:none;stroke-dashoffset:0;stroke-opacity:1"
         id="path825"
         cx="260.10367"
         cy="283.77219"
         r="88.397003" />
    </g>
  </g>
</svg>
